<mxfile host="app.diagrams.net" agent="Mozilla/5.0 (Windows NT 10.0; Win64; x64) AppleWebKit/537.36 (KHTML, like Gecko) Chrome/132.0.0.0 Safari/537.36" version="26.0.14">
  <diagram name="Page-1" id="m8oWySfyj3ip4-jNuUJG">
    <mxGraphModel dx="2625" dy="2132" grid="1" gridSize="10" guides="1" tooltips="1" connect="1" arrows="1" fold="1" page="1" pageScale="1" pageWidth="1169" pageHeight="827" math="0" shadow="0" adaptiveColors="auto">
      <root>
        <mxCell id="0" />
        <mxCell id="1" parent="0" />
        <mxCell id="rhaFleB-PvsEWys3PcgX-2" value="" style="rounded=0;whiteSpace=wrap;html=1;labelBackgroundColor=none;fillColor=#21C0A5;strokeColor=#006658;fontColor=#5C5C5C;" vertex="1" parent="1">
          <mxGeometry x="585" y="-340" width="285" height="1160" as="geometry" />
        </mxCell>
        <mxCell id="rhaFleB-PvsEWys3PcgX-3" value="&lt;b&gt;&lt;font style=&quot;font-size: 31px;&quot;&gt;Customer&lt;/font&gt;&lt;/b&gt;" style="shape=umlActor;verticalLabelPosition=bottom;verticalAlign=top;html=1;outlineConnect=0;rotation=0;labelBackgroundColor=none;fillColor=#21C0A5;strokeColor=#006658;fontColor=#5C5C5C;" vertex="1" parent="1">
          <mxGeometry x="160" y="-30" width="130" height="160" as="geometry" />
        </mxCell>
        <mxCell id="rhaFleB-PvsEWys3PcgX-6" value="" style="ellipse;whiteSpace=wrap;html=1;labelBackgroundColor=none;fillColor=#21C0A5;strokeColor=#006658;fontColor=#5C5C5C;" vertex="1" parent="1">
          <mxGeometry x="630" y="-30" width="170" height="80" as="geometry" />
        </mxCell>
        <mxCell id="rhaFleB-PvsEWys3PcgX-7" value="" style="ellipse;whiteSpace=wrap;html=1;labelBackgroundColor=none;fillColor=#21C0A5;strokeColor=#006658;fontColor=#5C5C5C;" vertex="1" parent="1">
          <mxGeometry x="630" y="70" width="170" height="80" as="geometry" />
        </mxCell>
        <mxCell id="rhaFleB-PvsEWys3PcgX-8" value="" style="ellipse;whiteSpace=wrap;html=1;labelBackgroundColor=none;fillColor=#21C0A5;strokeColor=#006658;fontColor=#5C5C5C;" vertex="1" parent="1">
          <mxGeometry x="640" y="170" width="170" height="80" as="geometry" />
        </mxCell>
        <mxCell id="rhaFleB-PvsEWys3PcgX-9" value="" style="ellipse;whiteSpace=wrap;html=1;labelBackgroundColor=none;fillColor=#21C0A5;strokeColor=#006658;fontColor=#5C5C5C;" vertex="1" parent="1">
          <mxGeometry x="630" y="280" width="170" height="80" as="geometry" />
        </mxCell>
        <mxCell id="rhaFleB-PvsEWys3PcgX-10" value="" style="ellipse;whiteSpace=wrap;html=1;labelBackgroundColor=none;fillColor=#21C0A5;strokeColor=#006658;fontColor=#5C5C5C;" vertex="1" parent="1">
          <mxGeometry x="630" y="480" width="170" height="80" as="geometry" />
        </mxCell>
        <mxCell id="rhaFleB-PvsEWys3PcgX-11" value="" style="ellipse;whiteSpace=wrap;html=1;labelBackgroundColor=none;fillColor=#21C0A5;strokeColor=#006658;fontColor=#5C5C5C;" vertex="1" parent="1">
          <mxGeometry x="630" y="590" width="170" height="80" as="geometry" />
        </mxCell>
        <mxCell id="rhaFleB-PvsEWys3PcgX-13" value="&lt;b style=&quot;&quot;&gt;&lt;font style=&quot;font-size: 26px;&quot;&gt;Manage customer&lt;/font&gt;&lt;/b&gt;" style="ellipse;whiteSpace=wrap;html=1;labelBackgroundColor=none;fillColor=#21C0A5;strokeColor=#006658;fontColor=#5C5C5C;" vertex="1" parent="1">
          <mxGeometry x="630" y="710" width="170" height="80" as="geometry" />
        </mxCell>
        <mxCell id="rhaFleB-PvsEWys3PcgX-18" value="&lt;b&gt;&lt;font style=&quot;font-size: 31px;&quot;&gt;Admin&lt;/font&gt;&lt;/b&gt;" style="shape=umlActor;verticalLabelPosition=bottom;verticalAlign=top;html=1;outlineConnect=0;rotation=0;labelBackgroundColor=none;fillColor=#21C0A5;strokeColor=#006658;fontColor=#5C5C5C;" vertex="1" parent="1">
          <mxGeometry x="160" y="515" width="130" height="160" as="geometry" />
        </mxCell>
        <mxCell id="rhaFleB-PvsEWys3PcgX-20" value="" style="ellipse;whiteSpace=wrap;html=1;labelBackgroundColor=none;fillColor=#21C0A5;strokeColor=#006658;fontColor=#5C5C5C;" vertex="1" parent="1">
          <mxGeometry x="630" y="-260" width="170" height="80" as="geometry" />
        </mxCell>
        <mxCell id="rhaFleB-PvsEWys3PcgX-21" value="" style="ellipse;whiteSpace=wrap;html=1;labelBackgroundColor=none;fillColor=#21C0A5;strokeColor=#006658;fontColor=#5C5C5C;" vertex="1" parent="1">
          <mxGeometry x="630" y="-140" width="170" height="80" as="geometry" />
        </mxCell>
        <mxCell id="rhaFleB-PvsEWys3PcgX-22" value="&lt;div style=&quot;line-height: 240%;&quot;&gt;&lt;span style=&quot;font-size: 27px;&quot;&gt;&lt;b&gt;Website&amp;nbsp;&lt;/b&gt;&lt;/span&gt;&lt;/div&gt;" style="text;html=1;align=center;verticalAlign=middle;whiteSpace=wrap;rounded=0;labelBackgroundColor=none;fontColor=#5C5C5C;" vertex="1" parent="1">
          <mxGeometry x="645" y="-350" width="140" height="90" as="geometry" />
        </mxCell>
        <mxCell id="rhaFleB-PvsEWys3PcgX-24" value="&lt;div style=&quot;line-height: 240%;&quot;&gt;&lt;span style=&quot;font-size: 27px;&quot;&gt;&lt;b&gt;View Products&lt;/b&gt;&lt;/span&gt;&lt;/div&gt;" style="text;html=1;align=center;verticalAlign=middle;whiteSpace=wrap;rounded=0;labelBackgroundColor=none;fontColor=#5C5C5C;" vertex="1" parent="1">
          <mxGeometry x="655" y="-265" width="140" height="90" as="geometry" />
        </mxCell>
        <mxCell id="rhaFleB-PvsEWys3PcgX-25" value="&lt;div style=&quot;line-height: 240%;&quot;&gt;&lt;span style=&quot;font-size: 27px;&quot;&gt;&lt;b&gt;Search products&lt;/b&gt;&lt;/span&gt;&lt;/div&gt;" style="text;html=1;align=center;verticalAlign=middle;whiteSpace=wrap;rounded=0;labelBackgroundColor=none;fontColor=#5C5C5C;" vertex="1" parent="1">
          <mxGeometry x="645" y="-145" width="140" height="90" as="geometry" />
        </mxCell>
        <mxCell id="rhaFleB-PvsEWys3PcgX-26" value="&lt;div style=&quot;line-height: 240%;&quot;&gt;&lt;span style=&quot;font-size: 27px;&quot;&gt;&lt;b&gt;Add to cart&lt;/b&gt;&lt;/span&gt;&lt;/div&gt;" style="text;html=1;align=center;verticalAlign=middle;whiteSpace=wrap;rounded=0;labelBackgroundColor=none;fontColor=#5C5C5C;" vertex="1" parent="1">
          <mxGeometry x="650" y="-35" width="145" height="90" as="geometry" />
        </mxCell>
        <mxCell id="rhaFleB-PvsEWys3PcgX-27" value="&lt;div style=&quot;line-height: 240%;&quot;&gt;&lt;span style=&quot;font-size: 27px;&quot;&gt;&lt;b&gt;Checkout&lt;/b&gt;&lt;/span&gt;&lt;/div&gt;" style="text;html=1;align=center;verticalAlign=middle;whiteSpace=wrap;rounded=0;labelBackgroundColor=none;fontColor=#5C5C5C;" vertex="1" parent="1">
          <mxGeometry x="645" y="65" width="140" height="90" as="geometry" />
        </mxCell>
        <mxCell id="rhaFleB-PvsEWys3PcgX-28" value="&lt;div style=&quot;line-height: 240%;&quot;&gt;&lt;span style=&quot;font-size: 27px;&quot;&gt;&lt;b&gt;Login&lt;/b&gt;&lt;/span&gt;&lt;/div&gt;" style="text;html=1;align=center;verticalAlign=middle;whiteSpace=wrap;rounded=0;labelBackgroundColor=none;fontColor=#5C5C5C;" vertex="1" parent="1">
          <mxGeometry x="655" y="165" width="140" height="90" as="geometry" />
        </mxCell>
        <mxCell id="rhaFleB-PvsEWys3PcgX-29" value="&lt;div style=&quot;line-height: 240%;&quot;&gt;&lt;span style=&quot;font-size: 27px;&quot;&gt;&lt;b&gt;Register&lt;/b&gt;&lt;/span&gt;&lt;/div&gt;" style="text;html=1;align=center;verticalAlign=middle;whiteSpace=wrap;rounded=0;labelBackgroundColor=none;fontColor=#5C5C5C;" vertex="1" parent="1">
          <mxGeometry x="655" y="280" width="140" height="85" as="geometry" />
        </mxCell>
        <mxCell id="rhaFleB-PvsEWys3PcgX-30" value="&lt;div style=&quot;line-height: 240%;&quot;&gt;&lt;span style=&quot;font-size: 27px;&quot;&gt;&lt;b&gt;Manage Products&lt;/b&gt;&lt;/span&gt;&lt;/div&gt;" style="text;html=1;align=center;verticalAlign=middle;whiteSpace=wrap;rounded=0;labelBackgroundColor=none;fontColor=#5C5C5C;" vertex="1" parent="1">
          <mxGeometry x="655" y="475" width="140" height="90" as="geometry" />
        </mxCell>
        <mxCell id="rhaFleB-PvsEWys3PcgX-31" value="&lt;div style=&quot;line-height: 240%;&quot;&gt;&lt;span style=&quot;font-size: 27px;&quot;&gt;&lt;b&gt;Manage&lt;/b&gt;&lt;/span&gt;&lt;/div&gt;&lt;div style=&quot;line-height: 240%;&quot;&gt;&lt;span style=&quot;font-size: 27px;&quot;&gt;&lt;b&gt;order&lt;/b&gt;&lt;/span&gt;&lt;/div&gt;" style="text;html=1;align=center;verticalAlign=middle;whiteSpace=wrap;rounded=0;labelBackgroundColor=none;fontColor=#5C5C5C;" vertex="1" parent="1">
          <mxGeometry x="655" y="585" width="140" height="90" as="geometry" />
        </mxCell>
        <mxCell id="rhaFleB-PvsEWys3PcgX-33" value="" style="endArrow=none;html=1;rounded=0;entryX=-0.019;entryY=0.108;entryDx=0;entryDy=0;entryPerimeter=0;labelBackgroundColor=none;strokeColor=#006658;fontColor=default;" edge="1" parent="1" target="rhaFleB-PvsEWys3PcgX-2">
          <mxGeometry width="50" height="50" relative="1" as="geometry">
            <mxPoint x="320" y="-10" as="sourcePoint" />
            <mxPoint x="360" y="-55" as="targetPoint" />
          </mxGeometry>
        </mxCell>
        <mxCell id="rhaFleB-PvsEWys3PcgX-34" value="" style="endArrow=none;html=1;rounded=0;entryX=0.005;entryY=0.204;entryDx=0;entryDy=0;entryPerimeter=0;labelBackgroundColor=none;strokeColor=#006658;fontColor=default;" edge="1" parent="1" target="rhaFleB-PvsEWys3PcgX-2">
          <mxGeometry width="50" height="50" relative="1" as="geometry">
            <mxPoint x="320" y="5" as="sourcePoint" />
            <mxPoint x="590" y="-205" as="targetPoint" />
          </mxGeometry>
        </mxCell>
        <mxCell id="rhaFleB-PvsEWys3PcgX-35" value="" style="endArrow=none;html=1;rounded=0;entryX=0.005;entryY=0.297;entryDx=0;entryDy=0;entryPerimeter=0;labelBackgroundColor=none;strokeColor=#006658;fontColor=default;" edge="1" parent="1" target="rhaFleB-PvsEWys3PcgX-2">
          <mxGeometry width="50" height="50" relative="1" as="geometry">
            <mxPoint x="320" y="20" as="sourcePoint" />
            <mxPoint x="596" y="-93" as="targetPoint" />
          </mxGeometry>
        </mxCell>
        <mxCell id="rhaFleB-PvsEWys3PcgX-36" value="" style="endArrow=none;html=1;rounded=0;entryX=0.005;entryY=0.378;entryDx=0;entryDy=0;entryPerimeter=0;labelBackgroundColor=none;strokeColor=#006658;fontColor=default;" edge="1" parent="1" target="rhaFleB-PvsEWys3PcgX-2">
          <mxGeometry width="50" height="50" relative="1" as="geometry">
            <mxPoint x="320" y="40" as="sourcePoint" />
            <mxPoint x="596" y="15" as="targetPoint" />
          </mxGeometry>
        </mxCell>
        <mxCell id="rhaFleB-PvsEWys3PcgX-37" value="" style="endArrow=none;html=1;rounded=0;entryX=0.019;entryY=0.457;entryDx=0;entryDy=0;entryPerimeter=0;labelBackgroundColor=none;strokeColor=#006658;fontColor=default;" edge="1" parent="1" target="rhaFleB-PvsEWys3PcgX-2">
          <mxGeometry width="50" height="50" relative="1" as="geometry">
            <mxPoint x="320" y="60" as="sourcePoint" />
            <mxPoint x="596" y="108" as="targetPoint" />
          </mxGeometry>
        </mxCell>
        <mxCell id="rhaFleB-PvsEWys3PcgX-38" value="" style="endArrow=none;html=1;rounded=0;entryX=0.005;entryY=0.551;entryDx=0;entryDy=0;entryPerimeter=0;labelBackgroundColor=none;strokeColor=#006658;fontColor=default;" edge="1" parent="1" target="rhaFleB-PvsEWys3PcgX-2">
          <mxGeometry width="50" height="50" relative="1" as="geometry">
            <mxPoint x="320" y="100" as="sourcePoint" />
            <mxPoint x="600" y="200" as="targetPoint" />
          </mxGeometry>
        </mxCell>
        <mxCell id="rhaFleB-PvsEWys3PcgX-39" value="" style="endArrow=none;html=1;rounded=0;labelBackgroundColor=none;strokeColor=#006658;fontColor=default;" edge="1" parent="1">
          <mxGeometry width="50" height="50" relative="1" as="geometry">
            <mxPoint x="580" y="540" as="sourcePoint" />
            <mxPoint x="320" y="590" as="targetPoint" />
          </mxGeometry>
        </mxCell>
        <mxCell id="rhaFleB-PvsEWys3PcgX-41" value="" style="endArrow=none;html=1;rounded=0;labelBackgroundColor=none;strokeColor=#006658;fontColor=default;" edge="1" parent="1">
          <mxGeometry width="50" height="50" relative="1" as="geometry">
            <mxPoint x="580" y="610" as="sourcePoint" />
            <mxPoint x="330" y="600" as="targetPoint" />
          </mxGeometry>
        </mxCell>
        <mxCell id="rhaFleB-PvsEWys3PcgX-42" value="" style="endArrow=none;html=1;rounded=0;exitX=-0.001;exitY=0.924;exitDx=0;exitDy=0;exitPerimeter=0;labelBackgroundColor=none;strokeColor=#006658;fontColor=default;" edge="1" parent="1" source="rhaFleB-PvsEWys3PcgX-2">
          <mxGeometry width="50" height="50" relative="1" as="geometry">
            <mxPoint x="590" y="620" as="sourcePoint" />
            <mxPoint x="340" y="610" as="targetPoint" />
          </mxGeometry>
        </mxCell>
      </root>
    </mxGraphModel>
  </diagram>
</mxfile>
